<svg xmlns="http://www.w3.org/2000/svg"><symbol id="icon-locked"><path data-name="Locked 2" class="cls-1" d="M13 5.451A5.5 5.5 0 0 0 7.389 0a5.366 5.366 0 0 0-5.453 5.453h-.63A1 1 0 0 0 .048 6.532v9.05A1.048 1.048 0 0 0 1.187 17h12.568A1.382 1.382 0 0 0 15 15.58V6.97a1.343 1.343 0 0 0-1.247-1.532zm-1.187-.013a4.284 4.284 0 0 0-8.564 0h8.564zM7.168 7.473A2.01 2.01 0 0 1 9.13 9.527a2.054 2.054 0 0 1-1.263 1.919c-.1.041.661 3.541.661 3.541l-2.64.019a20.682 20.682 0 0 0 .647-3.535 2.05 2.05 0 0 1-1.328-1.944 2.009 2.009 0 0 1 1.965-2.054z"/></symbol><symbol id="icon-user"><path data-name="User copy 2" class="cls-1" d="M6.837.227a1.577 1.577 0 0 0-.721.269 1.75 1.75 0 0 0-.786.046 1.83 1.83 0 0 0-1.18 1.619c-.04.394-.05 1.5-.023 2.1.08.356-.2.356-.2.356-.5-.033-.278 1.516-.278 1.516a.814.814 0 0 0 .722.866 3.173 3.173 0 0 0 1.286 1.526s0 .616.018 1.072c-.076-.037.26 1.165-2.062 1.5s-2.766 1.077-3.2 1.489-.421 2.41-.421 2.41L14.969 15s-.112-2-.549-2.417-.915-1.152-3.236-1.489c-2.257-.321-1.886-1.507-1.9-1.578 0-.179.028-.941.028-.941a3.91 3.91 0 0 0 1.145-1.61 1.322 1.322 0 0 0 .866-.8s.165-1.564-.364-1.556c0 0-.251.08-.171-.275a9.608 9.608 0 0 0 .014-1.86c-.041-.395.02-1.523-.822-1.681a5.162 5.162 0 0 0-.931-.041c-.281-.039-.615-.755-1.137-.755z"/></symbol></svg>